<?xml version="1.0" encoding="UTF-8" standalone="no"?>
<svg width="20px" height="20px" viewBox="0 0 20 20" version="1.1" xmlns="http://www.w3.org/2000/svg" xmlns:xlink="http://www.w3.org/1999/xlink">
    <!-- Generator: Sketch 40 (33762) - http://www.bohemiancoding.com/sketch -->
    <title>Icons-Settings</title>
    <desc>Created with Sketch.</desc>
    <defs></defs>
    <g id="Symbols" stroke="none" stroke-width="1" fill="none" fill-rule="evenodd">
        <g id="Nav" transform="translate(-324.000000, -40.000000)" fill="#2A2A2A">
            <g id="Icons-Settings">
                <path d="M334,52.5 C332.62,52.5 331.5,51.38 331.5,50 C331.5,48.61875 332.62,47.5 334,47.5 C335.38125,47.5 336.5,48.61875 336.5,50 C336.5,51.38 335.38125,52.5 334,52.5 M343.4525,48.68125 L341.32875,48.41625 C341.13625,47.52 340.7825,46.68625 340.3,45.94 L341.61625,44.2475 C341.81,44 341.7875,43.64625 341.565,43.4225 L340.5775,42.435 C340.355,42.2125 340.00125,42.19 339.7525,42.38375 L338.06,43.7 C337.31375,43.21875 336.47875,42.86375 335.585,42.67125 L335.31875,40.5475 C335.27875,40.23375 335.01375,40 334.69875,40 L333.30125,40 C332.98625,40 332.72125,40.23375 332.68125,40.5475 L332.415,42.67125 C331.52125,42.86375 330.68625,43.21875 329.94,43.7 L328.2475,42.38375 C327.99875,42.19 327.645,42.2125 327.4225,42.435 L326.435,43.4225 C326.2125,43.64625 326.19,44 326.38375,44.2475 L327.7,45.94 C327.2175,46.68625 326.86375,47.52 326.67125,48.41625 L324.54875,48.68125 C324.235,48.72125 324,48.98625 324,49.30125 L324,50.69875 C324,51.01375 324.235,51.27875 324.54875,51.31875 L326.67125,51.58375 C326.86375,52.48 327.2175,53.31375 327.7,54.06 L326.38375,55.75125 C326.19,56 326.2125,56.35375 326.435,56.5775 L327.4225,57.565 C327.645,57.7875 327.99875,57.81 328.2475,57.61625 L329.94,56.3 C330.68625,56.78125 331.52125,57.13625 332.415,57.32875 L332.68125,59.4525 C332.72125,59.765 332.98625,60 333.30125,60 L334.69875,60 C335.01375,60 335.27875,59.765 335.31875,59.4525 L335.585,57.32875 C336.47875,57.13625 337.31375,56.78125 338.06,56.3 L339.7525,57.61625 C340.00125,57.81 340.355,57.7875 340.5775,57.565 L341.565,56.5775 C341.7875,56.35375 341.81,56 341.61625,55.75125 L340.3,54.06 C340.7825,53.31375 341.13625,52.48 341.32875,51.58375 L343.4525,51.31875 C343.765,51.27875 344,51.01375 344,50.69875 L344,49.30125 C344,48.98625 343.765,48.72125 343.4525,48.68125"></path>
            </g>
        </g>
    </g>
</svg>