<svg width="101px" height="132px" viewBox="0 0 101 132" version="1.1" xmlns="http://www.w3.org/2000/svg" xmlns:xlink="http://www.w3.org/1999/xlink">
    <desc>Logo</desc>
    <defs></defs>
    <g id="Logo" stroke="none" stroke-width="1" fill="none" fill-rule="evenodd">
        <path d="M34,3.2 C13.5,9.6 0,29.3 0,50.8 L0,50.8 L0,69.6 L0,69.6 C0,87 8.9,102.4 22.4,111.4 L42.7,129 C46.9,132.6 53.1,132.6 57.3,129 L77.6,111.4 C91.1,102.4 100,87.1 100,69.6 L100,69.6 L100,50.8 L100,50.8 C100.1,17.9 68.5,-7.6 34,3.2" id="Fill-1" fill="#2A2A2A"></path>
        <path d="M84.7,48.7 C84.7,67.8 69.2,83.4 50.1,83.4 C31,83.4 15.5,67.9 15.5,48.7 C15.5,29.5 31,14.1 50.1,14.1 C69.2,14.1 84.7,29.6 84.7,48.7" id="Fill-14" fill="#FEFEFE"></path>
        <path d="M15.5,48.7 L15.5,47.5 C15.3,49 15.2,50.6 15.2,52.2 L15.2,67.8 L15.2,67.8 L15.2,74.3 C15.2,82.5 18.8,90.3 24.9,95.7 L50,117.6 L50,83.4 C31,83.4 15.5,67.9 15.5,48.7 L15.5,48.7 Z" id="Shape" fill="#EEEDEA"></path>
        <path d="M84.7,48.9 C84.6,68 69.1,83.4 50.1,83.4 L50.1,97.4 L56.5,103.8 C72.6,100.8 84.8,86.6 84.8,69.5 L84.8,52.1 C84.8,51 84.8,50 84.7,48.9 L84.7,48.9 Z" id="Shape" fill="#AFACA7"></path>
        <path d="M50,47.3 C55,47.3 59.3,50 61.7,53.9 C62.9,51.8 63.7,49.4 63.7,46.9 C63.7,39.4 57.6,33.2 50.1,33.2 C42.6,33.2 36.5,39.3 36.5,46.9 C36.5,49.5 37.2,51.9 38.5,53.9 C40.7,50 45.1,47.3 50,47.3 L50,47.3 Z" id="Shape" fill="#2A2A2A"></path>
        <path d="M50,47.3 C45,47.3 40.7,50 38.3,53.9 C40.7,57.9 45,60.5 50,60.5 C55,60.5 59.3,57.8 61.7,53.9 C59.3,50 55,47.3 50,47.3 L50,47.3 Z" id="Shape" fill="#AFACA7"></path>
    </g>
</svg>