<?xml version="1.0" encoding="UTF-8" standalone="no"?>
<svg width="97px" height="23px" viewBox="0 0 97 23" version="1.1" xmlns="http://www.w3.org/2000/svg" xmlns:xlink="http://www.w3.org/1999/xlink">
    <!-- Generator: Sketch 40 (33762) - http://www.bohemiancoding.com/sketch -->
    <title>Simploo-Nav-Logo</title>
    <desc>Created with Sketch.</desc>
    <defs>
        <polygon id="path-1" points="16.8424608 0.0612828623 0 0.0612828623 0 21.7203142 16.8424608 21.7203142"></polygon>
        <path d="M0.0364252925,10.0596982 C3.27207156,10.0596982 5.89541944,7.4765092 5.89541944,4.2905761 L5.89541944,1.39942131 C5.89541944,0.949570249 5.84311723,0.511751683 5.74417413,0.0915364273 L0.0364252925,0.0915364273 L0.0364252925,10.0596982 L0.0364252925,10.0596982 Z" id="path-3"></path>
        <path d="M0.104510981,2.41258422 C0.124732196,3.62548904 1.11533791,4.60647771 2.34615379,4.63460887 L2.45480286,4.63460887 C3.69688364,4.60618575 4.69525158,3.60502372 4.69525158,2.37474514 C4.69525158,1.13552431 3.68231768,0.129527467 2.42768045,0.115191703 L2.37330936,0.115191703 C1.12994008,0.129381272 0.124880698,1.1151093 0.104510981,2.33690629 L0.104510981,2.41258422 L0.104510981,2.41258422 Z" id="path-5"></path>
        <path d="M0.105204199,0.115191703 C0.141532081,1.33207246 1.15478528,2.30803215 2.4005117,2.30803215 C3.64469064,2.30803215 4.65791578,1.33207246 4.69424315,0.115191703 L0.105204199,0.115191703 L0.105204199,0.115191703 Z" id="path-7"></path>
    </defs>
    <g id="Symbols" stroke="none" stroke-width="1" fill="none" fill-rule="evenodd">
        <g id="Nav" transform="translate(-16.000000, -39.000000)">
            <g id="Simploo-Nav-Logo">
                <g transform="translate(16.000000, 39.000000)">
                    <path d="M32.4085,14.262 C32.4085,15.165 31.5685,15.753 30.3715,15.753 C29.4265,15.753 28.7755,15.375 28.1035,14.976 C27.6835,14.724 27.4525,14.577 27.1585,14.577 C26.5495,14.577 25.9405,15.375 25.9405,16.026 C25.9405,16.467 26.2135,16.824 26.7385,17.181 C27.8095,17.916 29.0065,18.231 30.3505,18.231 C33.1435,18.231 35.2225,16.698 35.2225,14.115 C35.2225,9.642 28.9015,10.041 28.9015,7.92 C28.9015,7.185 29.5735,6.597 30.7495,6.597 C31.5265,6.597 32.1565,6.849 32.8495,7.206 C33.2905,7.437 33.5005,7.563 33.7315,7.563 C34.3825,7.563 34.9285,6.744 34.9285,6.114 C34.9285,5.673 34.6975,5.379 34.1515,5.022 C33.2695,4.455 31.9675,4.119 30.7705,4.119 C28.0195,4.119 26.0875,5.694 26.0875,8.067 C26.0875,12.351 32.4085,11.847 32.4085,14.262 L32.4085,14.262 Z M40.1575,5.61 C40.1575,4.644 39.4645,3.993 38.4985,3.993 C37.5325,3.993 36.8395,4.644 36.8395,5.61 C36.8395,6.576 37.5325,7.248 38.4985,7.248 C39.4645,7.248 40.1575,6.576 40.1575,5.61 L40.1575,5.61 Z M39.9055,9.516 C39.9055,8.76 39.4435,8.382 38.4985,8.382 C37.5535,8.382 37.0915,8.76 37.0915,9.516 L37.0915,16.971 C37.0915,17.727 37.5535,18.105 38.4985,18.105 C39.4435,18.105 39.9055,17.727 39.9055,16.971 L39.9055,9.516 Z M43.7485,8.382 C42.8245,8.382 42.3835,8.76 42.3835,9.516 L42.3835,16.971 C42.3835,17.727 42.8455,18.105 43.7905,18.105 C44.7355,18.105 45.1975,17.727 45.1975,16.971 L45.1975,11.574 C45.5335,11.112 46.1005,10.839 46.7725,10.839 C47.3185,10.839 47.7385,11.028 47.9905,11.385 C48.1795,11.658 48.2635,12.057 48.2635,12.54 L48.2635,16.971 C48.2635,17.727 48.7255,18.105 49.6705,18.105 C50.6155,18.105 51.0775,17.727 51.0775,16.971 L51.0775,11.574 C51.4135,11.112 51.9595,10.839 52.6315,10.839 C53.1985,10.839 53.6185,11.028 53.8495,11.385 C54.0595,11.658 54.1225,12.078 54.1225,12.561 L54.1225,16.971 C54.1225,17.727 54.5845,18.105 55.5295,18.105 C56.4745,18.105 56.9365,17.727 56.9365,16.971 L56.9365,12.099 C56.9365,11.091 56.7475,10.272 56.3695,9.684 C55.8025,8.802 54.9205,8.382 53.7445,8.382 C52.3375,8.382 51.2245,9.033 50.6995,10.062 C50.1955,8.97 49.2715,8.382 47.8645,8.382 C46.5625,8.382 45.5545,8.907 45.0505,9.747 L45.0505,9.516 C45.0715,8.865 44.7145,8.382 43.7485,8.382 L43.7485,8.382 Z M62.1235,17.769 C62.5225,18 63.1105,18.126 63.7825,18.126 C66.6175,18.126 68.4865,16.215 68.4865,13.128 C68.4865,10.104 66.6595,8.382 64.3495,8.382 C63.2995,8.382 62.4805,8.718 61.9345,9.39 L61.9345,9.264 C61.9345,8.718 61.5565,8.382 60.6955,8.382 C59.7715,8.382 59.3095,8.739 59.3095,9.516 L59.3095,20.94 C59.3095,21.696 59.7715,22.074 60.7165,22.074 C61.6615,22.074 62.1235,21.696 62.1235,20.94 L62.1235,17.769 Z M62.1235,15.501 L62.1235,11.07 C62.5015,10.776 62.9425,10.629 63.4465,10.629 C64.7485,10.629 65.6095,11.574 65.6095,13.275 C65.6095,14.934 64.7695,15.837 63.3835,15.837 C62.9215,15.837 62.4805,15.732 62.1235,15.501 L62.1235,15.501 Z M73.2325,4.875 C73.2325,4.119 72.7705,3.741 71.8255,3.741 C70.8805,3.741 70.4185,4.119 70.4185,4.875 L70.4185,16.971 C70.4185,17.727 70.8805,18.105 71.8255,18.105 C72.7705,18.105 73.2325,17.727 73.2325,16.971 L73.2325,4.875 Z M75.1645,13.275 C75.1645,16.257 77.0125,18.21 79.9945,18.21 C82.9975,18.21 84.9295,16.257 84.9295,13.212 C84.9295,10.251 83.0605,8.277 80.0785,8.277 C77.0965,8.277 75.1645,10.251 75.1645,13.275 L75.1645,13.275 Z M78.0415,13.212 C78.0415,11.574 78.7975,10.566 80.0155,10.566 C81.2335,10.566 82.0315,11.574 82.0315,13.275 C82.0315,14.913 81.2755,15.942 80.0575,15.942 C78.8395,15.942 78.0415,14.913 78.0415,13.212 L78.0415,13.212 Z M86.2945,13.275 C86.2945,16.257 88.1425,18.21 91.1245,18.21 C94.1275,18.21 96.0595,16.257 96.0595,13.212 C96.0595,10.251 94.1905,8.277 91.2085,8.277 C88.2265,8.277 86.2945,10.251 86.2945,13.275 L86.2945,13.275 Z M89.1715,13.212 C89.1715,11.574 89.9275,10.566 91.1455,10.566 C92.3635,10.566 93.1615,11.574 93.1615,13.275 C93.1615,14.913 92.4055,15.942 91.1875,15.942 C89.9695,15.942 89.1715,14.913 89.1715,13.212 L89.1715,13.212 Z" id="Simploo" fill="#2D2C2B"></path>
                    <g id="Page-1">
                        <g id="Group-6" transform="translate(0.000000, 0.053106)">
                            <g id="Group-3">
                                <mask id="mask-2" fill="white">
                                    <use xlink:href="#path-1"></use>
                                </mask>
                                <g id="Clip-2"></g>
                                <path d="M5.72573848,0.472808919 C2.27180824,1.53090796 -7.88028803e-05,4.78975992 -7.88028803e-05,8.35037179 L-7.88028803e-05,8.35037179 L-7.88028803e-05,11.4533015 L-7.88028803e-05,11.4533015 C-7.88028803e-05,14.3390262 1.49954001,16.8779984 3.77142705,18.3627503 L7.19462417,21.271747 C7.89912192,21.8698367 8.94326008,21.8698367 9.64775783,21.271747 L13.070955,18.3627503 C15.342842,16.8779984 16.8424608,14.3390262 16.8424608,11.4533015 L16.8424608,11.4533015 L16.8424608,8.35037179 L16.8424608,8.35037179 C16.8424608,2.91248743 11.5224784,-1.30284262 5.72573848,0.472808919" id="Fill-1" fill="#2A2A2A" mask="url(#mask-2)"></path>
                            </g>
                            <path d="M2.56109361,8.3810908 L2.56109361,8.3810908 C2.56109361,5.19515769 5.18444149,2.61274441 8.42087579,2.61274441 L8.42087579,2.61274441 C11.6573101,2.61274441 14.281446,5.19515769 14.281446,8.3810908 L14.281446,8.3810908 L14.281446,11.2722456 L14.281446,11.2722456 C14.281446,14.4581787 11.6573101,17.0413677 8.42087579,17.0413677 L8.42087579,17.0413677 C5.18444149,17.0413677 2.56109361,14.4581787 2.56109361,11.2722456 L2.56109361,11.2722456 L2.56109361,8.3810908 Z" id="Fill-4" fill="#EEEDEA"></path>
                        </g>
                        <g id="Group-9" transform="translate(8.385239, 7.034698)">
                            <mask id="mask-4" fill="white">
                                <use xlink:href="#path-3"></use>
                            </mask>
                            <g id="Clip-8"></g>
                            <polygon id="Fill-7" fill="#AFACA7" mask="url(#mask-4)" points="0.0364252925 13.0206689 9.55817732 13.0206689 9.55817732 0.0915364273 0.0364252925 0.0915364273"></polygon>
                        </g>
                        <g id="Group-16" transform="translate(2.532403, 2.100811)">
                            <path d="M1.66802669,13.5576263 L5.88870896,17.1632307 L5.88870896,9.9380588 L0.0281387489,8.94434555 L0.0281387489,10.018735 C0.0281387489,11.3762667 0.62625261,12.6678612 1.66802669,13.5576263" id="Fill-10" fill="#EEEDEA"></path>
                            <path d="M5.88870896,15.3684186 L5.88870896,13.8169537 L7.48919545,15.3924663 C7.48919545,15.3924663 5.88870896,15.2474043 5.88870896,15.3684186" id="Fill-12" fill="#2A2A2A"></path>
                            <path d="M11.7250079,5.78083111 C11.7250079,8.94737091 9.11742057,11.5142695 5.90068699,11.5142695 C2.68474145,11.5142695 0.0771541404,8.94737091 0.0771541404,5.78083111 C0.0771541404,2.61429131 2.68474145,0.0473926886 5.90068699,0.0473926886 C9.11742057,0.0473926886 11.7250079,2.61429131 11.7250079,5.78083111" id="Fill-14" fill="#FEFEFE"></path>
                        </g>
                        <g id="Group-23" transform="translate(6.021152, 5.203741)">
                            <g id="Group-19">
                                <mask id="mask-6" fill="white">
                                    <use xlink:href="#path-5"></use>
                                </mask>
                                <g id="Clip-18"></g>
                                <path d="M4.69556679,2.37490029 C4.69556679,3.62305377 3.66797723,4.63460887 2.40003888,4.63460887 C1.13210054,4.63460887 0.104510981,3.62305377 0.104510981,2.37490029 C0.104510981,1.1267468 1.13210054,0.115191703 2.40003888,0.115191703 C3.66797723,0.115191703 4.69556679,1.1267468 4.69556679,2.37490029" id="Fill-17" fill="#2A2A2A" mask="url(#mask-6)"></path>
                            </g>
                            <g id="Group-22" transform="translate(0.000000, 2.327197)">
                                <mask id="mask-8" fill="white">
                                    <use xlink:href="#path-7"></use>
                                </mask>
                                <g id="Clip-21"></g>
                                <path d="M4.69556679,2.37490029 C4.69556679,3.62305377 3.66797723,4.63460887 2.40003888,4.63460887 C1.13210054,4.63460887 0.104510981,3.62305377 0.104510981,2.37490029 C0.104510981,1.1267468 1.13210054,0.115191703 2.40003888,0.115191703 C3.66797723,0.115191703 4.69556679,1.1267468 4.69556679,2.37490029" id="Fill-20" fill="#AFACA7" mask="url(#mask-8)"></path>
                            </g>
                        </g>
                    </g>
                </g>
            </g>
        </g>
    </g>
</svg>